<svg width="177" height="177" viewBox="0 0 177 177" fill="none" xmlns="http://www.w3.org/2000/svg">
<g filter="url(#filter0_d_5_18)">
<path d="M38 37C38 23.7452 48.7452 13 62 13H114.196C127.451 13 138.196 23.7452 138.196 37V89.1962C138.196 102.451 127.451 113.196 114.196 113.196H62C48.7452 113.196 38 102.451 38 89.1962V37Z" fill="url(#paint0_linear_5_18)" shape-rendering="crispEdges"/>
<path d="M86.0372 43.9266C86.1266 43.4479 86.3807 43.0155 86.7553 42.7043C87.13 42.3931 87.6017 42.2228 88.0887 42.2228C88.5758 42.2228 89.0475 42.3931 89.4222 42.7043C89.7968 43.0155 90.0509 43.4479 90.1403 43.9266L92.3338 55.5264C92.4896 56.351 92.8903 57.1096 93.4838 57.7031C94.0772 58.2965 94.8358 58.6973 95.6605 58.8531L107.26 61.0466C107.739 61.136 108.171 61.39 108.483 61.7647C108.794 62.1394 108.964 62.6111 108.964 63.0981C108.964 63.5851 108.794 64.0568 108.483 64.4315C108.171 64.8062 107.739 65.0602 107.26 65.1497L95.6605 67.3431C94.8358 67.4989 94.0772 67.8997 93.4838 68.4931C92.8903 69.0866 92.4896 69.8452 92.3338 70.6699L90.1403 82.2696C90.0509 82.7483 89.7968 83.1807 89.4222 83.4919C89.0475 83.8031 88.5758 83.9734 88.0887 83.9734C87.6017 83.9734 87.13 83.8031 86.7553 83.4919C86.3807 83.1807 86.1266 82.7483 86.0372 82.2696L83.8437 70.6699C83.6879 69.8452 83.2872 69.0866 82.6937 68.4931C82.1002 67.8997 81.3417 67.4989 80.517 67.3431L68.9173 65.1497C68.4385 65.0602 68.0061 64.8062 67.6949 64.4315C67.3838 64.0568 67.2134 63.5851 67.2134 63.0981C67.2134 62.6111 67.3838 62.1394 67.6949 61.7647C68.0061 61.39 68.4385 61.136 68.9173 61.0466L80.517 58.8531C81.3417 58.6973 82.1002 58.2965 82.6937 57.7031C83.2872 57.1096 83.6879 56.351 83.8437 55.5264L86.0372 43.9266Z" stroke="white" stroke-width="4.17406" stroke-linecap="round" stroke-linejoin="round"/>
<path d="M104.785 42.2278V50.5759" stroke="white" stroke-width="4.17406" stroke-linecap="round" stroke-linejoin="round"/>
<path d="M108.959 46.4019H100.611" stroke="white" stroke-width="4.17406" stroke-linecap="round" stroke-linejoin="round"/>
<path d="M71.3925 83.9684C73.6978 83.9684 75.5666 82.0996 75.5666 79.7944C75.5666 77.4891 73.6978 75.6203 71.3925 75.6203C69.0872 75.6203 67.2184 77.4891 67.2184 79.7944C67.2184 82.0996 69.0872 83.9684 71.3925 83.9684Z" stroke="white" stroke-width="4.17406" stroke-linecap="round" stroke-linejoin="round"/>
</g>
<defs>
<filter id="filter0_d_5_18" x="0" y="0" width="176.196" height="176.196" filterUnits="userSpaceOnUse" color-interpolation-filters="sRGB">
<feFlood flood-opacity="0" result="BackgroundImageFix"/>
<feColorMatrix in="SourceAlpha" type="matrix" values="0 0 0 0 0 0 0 0 0 0 0 0 0 0 0 0 0 0 127 0" result="hardAlpha"/>
<feMorphology radius="12" operator="erode" in="SourceAlpha" result="effect1_dropShadow_5_18"/>
<feOffset dy="25"/>
<feGaussianBlur stdDeviation="25"/>
<feComposite in2="hardAlpha" operator="out"/>
<feColorMatrix type="matrix" values="0 0 0 0 0.231372 0 0 0 0 0.509804 0 0 0 0 0.964706 0 0 0 0.4 0"/>
<feBlend mode="normal" in2="BackgroundImageFix" result="effect1_dropShadow_5_18"/>
<feBlend mode="normal" in="SourceGraphic" in2="effect1_dropShadow_5_18" result="shape"/>
</filter>
<linearGradient id="paint0_linear_5_18" x1="88.0981" y1="13" x2="88.0981" y2="113.196" gradientUnits="userSpaceOnUse">
<stop stop-color="#3B82F6"/>
<stop offset="1" stop-color="#6366F1"/>
</linearGradient>
</defs>
</svg>
